<?xml version="1.0" encoding="UTF-8" standalone="no"?><!DOCTYPE svg PUBLIC "-//W3C//DTD SVG 1.1//EN" "http://www.w3.org/Graphics/SVG/1.1/DTD/svg11.dtd"><svg width="100%" height="100%" viewBox="0 0 168 24" version="1.1" xmlns="http://www.w3.org/2000/svg" xmlns:xlink="http://www.w3.org/1999/xlink" xml:space="preserve" xmlns:serif="http://www.serif.com/" style="fill-rule:evenodd;clip-rule:evenodd;stroke-linejoin:round;stroke-miterlimit:2;"><g id="info"><text id="quote" x="0.378px" y="10.075px" style="font-family:'MonotypeCorsiva', 'Monotype Corsiva', cursive;font-style:italic;font-size:11.52px;fill:#e9e2d0;">&quot;<tspan x="2.668px 6.798px 12.097px 13.467px 16.905px 21.726px 25.641px 27.011px 34.6px 38.961px 43.321px 48.143px 51.827px 53.197px 60.786px 64.701px 66.071px 69.278px 72.947px 76.384px 81.437px 84.644px 89.943px 91.313px 94.75px 99.357px 100.727px 103.935px 107.603px 112.194px 115.632px 119.992px 125.291px 126.661px 131.252px 136.304px 141.372px 142.742px 146.18px 150.771px 153.286px 156.724px 161.546px " y="10.075px 10.075px 10.075px 10.075px 10.075px 10.075px 10.075px 10.075px 10.075px 10.075px 10.075px 10.075px 10.075px 10.075px 10.075px 10.075px 10.075px 10.075px 10.075px 10.075px 10.075px 10.075px 10.075px 10.075px 10.075px 10.075px 10.075px 10.075px 10.075px 10.075px 10.075px 10.075px 10.075px 10.075px 10.075px 10.075px 10.075px 10.075px 10.075px 10.075px 10.075px 10.075px 10.075px ">In the woods we return to reason and faith&quot;</tspan></text><text id="author" x="111.336px" y="21.164px" style="font-family:'Montserrat-Medium', 'Montserrat';font-weight:500;font-size:3.6px;fill:#e9e2d0;">R<tspan x="113.841px 115.899px 116.809px " y="21.164px 21.164px 21.164px ">alp</tspan>h <tspan x="122.146px 125.907px 127.966px 128.876px " y="21.164px 21.164px 21.164px 21.164px ">Wald</tspan>o <tspan x="134.047px 136.364px 140.086px 142.195px 143.566px 145.275px 147.467px " y="21.164px 21.164px 21.164px 21.164px 21.164px 21.164px 21.164px ">Emerson</tspan></text></g></svg>